<?xml version="1.0" encoding="utf-8"?><svg viewBox="0 0 48 48" xmlns="http://www.w3.org/2000/svg" xmlns:xlink="http://www.w3.org/1999/xlink"><style>:root>svg{display:none}:root>svg:target{display:block}</style><svg viewBox="0 0 64 64" id="burger" xmlns="http://www.w3.org/2000/svg"><path d="M51 46a2 2 0 010 4H13a2 2 0 010-4h38zm0-16a2 2 0 010 4H13a2 2 0 010-4h38zm0-16a2 2 0 010 4H13a2 2 0 010-4h38z"/></svg><svg fill="none" viewBox="0 0 8 13" id="left-arrow" xmlns="http://www.w3.org/2000/svg"><path d="M7 12L1 6l6-6" stroke="#5D91D9" stroke-width="2"/></svg><svg fill="none" viewBox="0 0 22 30" id="location" xmlns="http://www.w3.org/2000/svg"><path fill-rule="evenodd" clip-rule="evenodd" d="M8.73.215c-1.536.296-3.878 1.477-5.116 2.58C2.646 3.66 1.468 5.249.92 6.433.402 7.547 0 9.467 0 10.822c0 3.781 2.492 9.013 7.218 15.156 1.426 1.854 2.832 3.53 3.226 3.844.721.578 1.524-.133 4.4-3.893 5.038-6.589 7.36-11.677 7.142-15.654C21.619 3.599 15.456-1.078 8.73.215zm4.732 5.737c.449.23 1.125.73 1.501 1.114 2.664 2.709 1.816 7.173-1.664 8.761-1.381.63-3.173.637-4.531.017-3.513-1.605-4.377-6.06-1.702-8.778 1.23-1.25 2.273-1.643 4.193-1.578 1.113.038 1.549.13 2.203.464z" fill="#5D91D9"/></svg><svg fill="none" viewBox="0 0 30 30" id="phone" xmlns="http://www.w3.org/2000/svg"><path fill-rule="evenodd" clip-rule="evenodd" d="M6.102.194C4.764.862 2.336 3.498.674 6.084c-.803 1.25-.824 1.424-.4 3.29.743 3.261 2.933 7.293 5.716 10.526 1.009 1.172 2.4 2.566 4.106 4.116.066.06.56.455 1.097.877 3.485 2.736 7.42 4.619 10.573 5.058.851.119 1.054.06 2.119-.611 2.332-1.47 5.143-4.05 5.804-5.326l.311-.6-.165-.567c-.215-.743-.546-1.062-2.318-2.237-2.625-1.742-4.49-2.744-5.504-2.956-1.017-.214-1.378.006-2.943 1.785l-.646.736-.38-.131c-2.846-.989-5.64-3.412-7.28-6.314-.345-.612-.898-1.906-.898-2.102 0-.069.49-.556 1.09-1.082 1.638-1.434 1.767-1.903 1.002-3.637-.691-1.57-3.11-5.467-3.868-6.233C7.763.346 7-.009 6.636 0c-.085.002-.325.09-.534.194z" fill="#5D91D9"/></svg><svg fill="none" viewBox="0 0 8 13" id="right-arrow" xmlns="http://www.w3.org/2000/svg"><path d="M1 12l6-6-6-6" stroke="#5D91D9" stroke-width="2"/></svg><svg fill="none" viewBox="0 0 35 33" id="traced" xmlns="http://www.w3.org/2000/svg"><path fill-rule="evenodd" clip-rule="evenodd" d="M12.688 4.598c-3.893 2.53-7.169 4.68-7.28 4.779-.821.73-.701 2.147.236 2.79.334.229.434.253 1.04.253h.671l1.135-.737 1.134-.737V22.4H9.06c-.518 0-.57-.017-.643-.205a.642.642 0 00-.252-.295c-.233-.122-5.223-.122-5.457 0a.638.638 0 00-.25.292c-.078.2-.1.204-1.27.227L0 22.44V23.536l1.187.023 1.187.024v5.885l-1.187.023L0 29.515v1.094l1.19.024c1.168.023 1.191.027 1.269.226a.638.638 0 00.25.292c.11.058 1.096.09 2.747.09 2.192 0 2.604-.02 2.768-.131.105-.072.192-.195.193-.274.003-.35.136-.398.575-.204 1.097.484 4.204 1.712 4.818 1.904 1.473.461 3.172.585 4.704.343 1.271-.2 1.07-.131 9.14-3.144 2.957-1.103 3.138-1.205 3.545-2 .423-.827.155-1.975-.6-2.566l-.346-.272V10.946l1.134.737 1.134.737h.67c.614 0 .701-.022 1.045-.265.512-.362.764-.849.764-1.477 0-.539-.184-.99-.531-1.303-.111-.1-1.108-.768-2.215-1.484L30.24 6.59l.009-2.054c.008-2.13-.043-2.527-.346-2.685-.087-.046-.903-.083-1.827-.083-2.136 0-2.054-.044-2.054 1.1 0 .614-.028.837-.107.836-.06 0-1.39-.834-2.955-1.852C21.395.833 20.036 0 19.94 0c-.096 0-3.36 2.07-7.252 4.598zm14.071 1.125c3.654 2.375 6.732 4.396 6.838 4.49.411.367.143 1.07-.408 1.07-.196 0-1.779-.99-6.624-4.147-4.88-3.178-6.428-4.147-6.627-4.146-.197 0-1.768.983-6.625 4.147-4.851 3.16-6.429 4.147-6.625 4.147-.551 0-.82-.704-.409-1.07.44-.391 13.584-8.87 13.705-8.84.072.017 3.121 1.975 6.775 4.35zm2.285-1.387c0 .765-.03 1.39-.067 1.39-.036 0-.454-.258-.928-.574l-.86-.574-.025-.816-.025-.815H29.044v1.39zm-4.53 2.885L29 10.147v14.446l-1.036.41c-.57.225-1.58.637-2.244.915l-1.208.506-.053-.395a2.147 2.147 0 00-1.155-1.638c-.33-.173-.482-.183-3.367-.225l-3.02-.044-1.123-.478c-1.613-.688-3.449-1.16-4.51-1.16h-.366V10.105L15.385 7.2c2.457-1.598 4.506-2.905 4.554-2.906.048 0 2.107 1.317 4.575 2.927zm-8.849 2.873c-.737.237-1.389.834-1.605 1.47-.173.507-.132 1.404.085 1.839.369.744 1.327 1.333 2.168 1.333.85 0 1.784-.566 2.161-1.309.233-.457.239-1.628.012-2.074-.211-.414-.68-.874-1.106-1.086-.382-.19-1.357-.288-1.715-.173zm3.842 5.4l-4.833 4.715.432.42.432.422 4.832-4.715 4.832-4.715-.431-.42-.432-.422-4.832 4.715zM16.85 11.34c.4.185.628.563.628 1.038 0 .905-.859 1.429-1.701 1.038-.838-.387-.846-1.673-.014-2.073.373-.179.705-.18 1.087-.003zm5.85 5.926c-1.662.63-2.043 2.775-.698 3.93 1.131.971 2.785.742 3.602-.5.236-.359.282-.517.316-1.086.036-.617.02-.706-.231-1.203-.555-1.1-1.821-1.583-2.989-1.14zm1.382 1.128c.855.348.866 1.703.018 2.096-.395.183-.727.178-1.099-.016-.828-.432-.825-1.646.004-2.054.364-.179.683-.187 1.077-.026zM7.207 26.525v3.537H3.582v-3.48c0-1.915.026-3.507.058-3.537.031-.031.847-.057 1.812-.057h1.755v3.537zm4.488-2.823c1.456.193 2.224.423 4.273 1.278l.777.324 2.997.042 2.998.042.24.234c.338.331.338.886-.001 1.217l-.24.234-3.795.023-3.796.024v1.174h3.78c3.037 0 3.874-.025 4.264-.124.463-.117.863-.276 4.29-1.696 1.742-.722 1.964-.753 2.391-.336.541.528.35 1.33-.392 1.64-.216.09-1.481.568-2.81 1.062l-4.575 1.704c-2.92 1.09-3.712 1.286-5.179 1.286-1.601 0-2.408-.224-5.932-1.65l-2.48-1.002-.002-2.8-.001-2.8 1.143.002c.63 0 1.552.055 2.05.122zm-6.87 4.117c-.024.064-.033.32-.018.569l.027.453.582.025.583.025V27.704h-.564c-.397 0-.577.034-.61.115z" fill="#fff"/></svg></svg>